<svg aria-hidden="true" style="position: absolute; width: 0; height: 0; overflow: hidden;" version="1.1" xmlns="http://www.w3.org/2000/svg" xmlns:xlink="http://www.w3.org/1999/xlink">
<defs>
<symbol id="icon-text_snippet" viewBox="0 0 24 24">
<path d="M20.391 8.391l-4.828-4.828q-0.563-0.563-1.406-0.563h-9.141q-0.844 0-1.43 0.586t-0.586 1.43v13.969q0 0.844 0.586 1.43t1.43 0.586h13.969q0.844 0 1.43-0.586t0.586-1.43v-9.141q0-0.844-0.609-1.453zM6.984 6.984h7.031v2.016h-7.031v-2.016zM17.016 17.016h-10.031v-2.016h10.031v2.016zM17.016 12.984h-10.031v-1.969h10.031v1.969z"></path>
</symbol>
<symbol id="icon-notebook-text" viewBox="0 0 32 32">
<path d="M23.003 4c0 0-0.878 0-1.003 0v2h-1v-2h-3v2h-1v-2h-3v2h-1v-2h-3v2h-1v-2c-0.125 0-1.003 0-1.003 0-1.103 0-1.997 0.891-1.997 2.003v20.994c0 1.106 0.891 2.003 1.997 2.003h15.006c1.103 0 1.997-0.891 1.997-2.003v-20.994c0-1.106-0.891-2.003-1.997-2.003zM22 25h-13v-1h13v1zM22 22h-13v-1h13v1zM22 19h-13v-1h13v1zM22 16h-13v-1h13v1zM22 13h-13v-1h13v1zM22 10h-13v-1h13v1z"></path>
<path d="M9 2h1v2h-1v-2z"></path>
<path d="M13 2h1v2h-1v-2z"></path>
<path d="M17 2h1v2h-1v-2z"></path>
<path d="M21 2h1v2h-1v-2z"></path>
</symbol>
<symbol id="icon-note-text" viewBox="0 0 32 32">
<path d="M6 11v15.001c0 0.56 0.451 0.999 1.007 0.999h13.993v-4.994c0-1.119 0.895-2.006 1.998-2.006h4.002v-9h-21zM6 10h21v-2.993c0-0.557-0.447-1.007-0.999-1.007h-19.003c-0.56 0-0.999 0.447-0.999 0.999v3.001zM21.5 28h-14.5c-1.105 0-2-0.902-2-2.001v-18.998c0-1.105 0.902-2.001 2.001-2.001h18.998c1.105 0 2.001 0.894 2.001 1.994v14.006l-6 7h-0.5zM22 26.5l4.7-5.5h-3.703c-0.546 0-0.997 0.452-0.997 1.009v4.491zM8 14v1h17v-1h-17zM8 17v1h17v-1h-17zM8 20v1h11v-1h-11zM8 23v1h11v-1h-11z"></path>
</symbol>
<symbol id="icon-file-text" viewBox="0 0 32 32">
<path d="M27 0h-24c-1.65 0-3 1.35-3 3v26c0 1.65 1.35 3 3 3h24c1.65 0 3-1.35 3-3v-26c0-1.65-1.35-3-3-3zM26 28h-22v-24h22v24zM8 14h14v2h-14zM8 18h14v2h-14zM8 22h14v2h-14zM8 10h14v2h-14z"></path>
</symbol>
</defs>
</svg>
